<?xml version="1.0" encoding="UTF-8" standalone="no" ?>
<!DOCTYPE svg PUBLIC "-//W3C//DTD SVG 1.1//EN" "http://www.w3.org/Graphics/SVG/1.1/DTD/svg11.dtd">
<svg xmlns="http://www.w3.org/2000/svg" xmlns:xlink="http://www.w3.org/1999/xlink" version="1.1" width="35" height="35" viewBox="0 0 35 35" xml:space="preserve">
<desc>Created with Fabric.js 5.3.0</desc>
<defs>
</defs>
<g transform="matrix(1 0 0 1 17.5 17.5)" id="r6TuYHKF88jEOE1comQQI"  >
<g style=""   >
		<g transform="matrix(3.1826666667 0 0 3.1826666667 0 -0.0000010194)" id="XrLfzdLmiOje5Y2x7Q792"  >
<path style="stroke: rgb(211,177,194); stroke-width: 1; stroke-dasharray: none; stroke-linecap: butt; stroke-dashoffset: 0; stroke-linejoin: miter; stroke-miterlimit: 4; fill: rgb(255,0,0); fill-opacity: 0; fill-rule: nonzero; opacity: 1;"  transform=" translate(0, 0)" d="M -4.87013 -2.80391 C -4.87013 -3.94505 -3.9450499999999997 -4.87013 -2.8039099999999997 -4.87013 L 2.8039100000000006 -4.87013 L 2.8039100000000006 -4.87013 C 3.9450500000000006 -4.87013 4.8701300000000005 -3.9450499999999997 4.8701300000000005 -2.8039099999999997 L 4.8701300000000005 2.8039100000000006 L 4.8701300000000005 2.8039100000000006 C 4.8701300000000005 3.9450500000000006 3.9450500000000006 4.8701300000000005 2.8039100000000006 4.8701300000000005 L -2.8039099999999997 4.8701300000000005 L -2.8039099999999997 4.8701300000000005 C -3.9450499999999997 4.8701300000000005 -4.87013 3.9450500000000006 -4.87013 2.8039100000000006 z" stroke-linecap="round" />
</g>
		<g transform="matrix(1 0 0 1 0.0000026822 3.5832847663)" id="zbFSZiklDgkrqdqn6LeIM"  >
<path style="stroke: rgb(211,177,194); stroke-width: 0; stroke-dasharray: none; stroke-linecap: butt; stroke-dashoffset: 0; stroke-linejoin: miter; stroke-miterlimit: 4; fill: rgb(211,177,194); fill-rule: nonzero; opacity: 1;"  transform=" translate(-13.85567, -13.50805)" d="M 13.85567 0 C 18.22852 0 21.7775 3.45628 21.7775 7.71492 C 21.7775 10.53193 20.22462 12.99786 17.9076 14.344570000000001 C 23.58112 15.15521 27.71135 17.623260000000002 27.71135 20.53949 C 27.71135 24.11458 21.50401 27.0161 13.85567 27.0161 C 6.20733 27.0161 -0.000009999999999621423 24.11458 -0.000009999999999621423 20.53949 C -0.000009999999999621423 17.623260000000002 4.1302200000000004 15.15521 9.80373 14.344570000000001 C 7.48671 12.997860000000001 5.93383 10.531930000000001 5.93383 7.714920000000001 C 5.93383 3.4562800000000014 9.48281 8.881784197001252e-16 13.85566 8.881784197001252e-16 z" stroke-linecap="round" />
</g>
</g>
</g>
</svg>