<?xml version="1.0" encoding="UTF-8" standalone="no" ?>
<!DOCTYPE svg PUBLIC "-//W3C//DTD SVG 1.1//EN" "http://www.w3.org/Graphics/SVG/1.1/DTD/svg11.dtd">
<svg xmlns="http://www.w3.org/2000/svg" xmlns:xlink="http://www.w3.org/1999/xlink" version="1.1" width="50" height="50" viewBox="0 0 50 50" xml:space="preserve">
<desc>Created with Fabric.js 5.3.0</desc>
<defs>
</defs>
<g transform="matrix(1 0 0 1 24.9684132418 25.3401571733)" id="SIoX33L1cgUEv3HRzPIsS"  >
<g style=""   >
		<g transform="matrix(4.9179881522 0 0 4.9179881522 0 -0.3085704151)" id="qbRmizg-MePbUwJcAcsCc"  >
<path style="stroke: rgb(211,177,194); stroke-width: 0.4; stroke-dasharray: none; stroke-linecap: butt; stroke-dashoffset: 0; stroke-linejoin: miter; stroke-miterlimit: 4; fill: rgb(255,0,0); fill-opacity: 0; fill-rule: nonzero; opacity: 1;"  transform=" translate(0, 0)" d="M -4.87013 -2.80391 C -4.87013 -3.94505 -3.9450499999999997 -4.87013 -2.8039099999999997 -4.87013 L 2.8039100000000006 -4.87013 L 2.8039100000000006 -4.87013 C 3.9450500000000006 -4.87013 4.8701300000000005 -3.9450499999999997 4.8701300000000005 -2.8039099999999997 L 4.8701300000000005 2.8039100000000006 L 4.8701300000000005 2.8039100000000006 C 4.8701300000000005 3.9450500000000006 3.9450500000000006 4.8701300000000005 2.8039100000000006 4.8701300000000005 L -2.8039099999999997 4.8701300000000005 L -2.8039099999999997 4.8701300000000005 C -3.9450499999999997 4.8701300000000005 -4.87013 3.9450500000000006 -4.87013 2.8039100000000006 z" stroke-linecap="round" />
</g>
		<g transform="matrix(1.4242667147 0 0 1.4242667147 -0.2158257167 1.9018628298)" id="eGLWWQOP7POJIXfUK-bd2"  >
<path style="stroke: rgb(211,177,194); stroke-width: 0; stroke-dasharray: none; stroke-linecap: butt; stroke-dashoffset: 0; stroke-linejoin: miter; stroke-miterlimit: 4; fill: rgb(211,177,194); fill-rule: nonzero; opacity: 1;"  transform=" translate(-13.85567, -13.50805)" d="M 13.85567 0 C 18.22852 0 21.7775 3.45628 21.7775 7.71492 C 21.7775 10.53193 20.22462 12.99786 17.9076 14.344570000000001 C 23.58112 15.15521 27.71135 17.623260000000002 27.71135 20.53949 C 27.71135 24.11458 21.50401 27.0161 13.85567 27.0161 C 6.20733 27.0161 -0.000009999999999621423 24.11458 -0.000009999999999621423 20.53949 C -0.000009999999999621423 17.623260000000002 4.1302200000000004 15.15521 9.80373 14.344570000000001 C 7.48671 12.997860000000001 5.93383 10.531930000000001 5.93383 7.714920000000001 C 5.93383 3.4562800000000014 9.48281 8.881784197001252e-16 13.85566 8.881784197001252e-16 z" stroke-linecap="round" />
</g>
		<g transform="matrix(1.5677965578 0 0 0.7058284512 -0.2158257167 13.7720864026)" id="1H80dsdaZv9T_ucR-ddvF"  >
<path style="stroke: rgb(254,157,244); stroke-width: 0; stroke-dasharray: none; stroke-linecap: butt; stroke-dashoffset: 0; stroke-linejoin: miter; stroke-miterlimit: 4; fill: rgb(211,177,194); fill-rule: nonzero; opacity: 1;"  transform=" translate(0, 0)" d="M 0 -15.37793 C 8.48862 -15.37793 15.37793 -8.48862 15.37793 0 C 15.37793 8.48862 8.48862 15.37793 0 15.37793 C -8.48862 15.37793 -15.37793 8.48862 -15.37793 0 C -15.37793 -8.48862 -8.48862 -15.37793 0 -15.37793 z" stroke-linecap="round" />
</g>
		<g transform="matrix(0.6391190731 0.4475159928 -0.3595684027 0.5135168976 -16.4295028347 17.4205954942)" id="OA6A2WHtMzsvGQsCJ6h2_"  >
<path style="stroke: rgb(227,199,21); stroke-width: 0; stroke-dasharray: none; stroke-linecap: butt; stroke-dashoffset: 0; stroke-linejoin: miter; stroke-miterlimit: 4; fill: rgb(211,177,194); fill-rule: nonzero; opacity: 1;"  transform=" translate(0, 0)" d="M -7.90617 -2.63906 C -7.90617 -5.54801 -6.01144 -7.9061699999999995 -3.67417 -7.9061699999999995 L 3.67417 -7.9061699999999995 L 3.67417 -7.9061699999999995 C 6.01144 -7.9061699999999995 7.90617 -5.548 7.90617 -2.6390599999999997 L 7.90617 2.6390600000000006 L 7.90617 2.6390600000000006 C 7.90617 5.5480100000000006 6.01144 7.90617 3.67417 7.90617 L -3.67417 7.90617 L -3.67417 7.90617 C -6.01144 7.90617 -7.90617 5.548 -7.90617 2.6390600000000006 z" stroke-linecap="round" />
</g>
		<g transform="matrix(0.5735764364 0.8191520443 -0.9151329761 0.6407830083 15.918525034 17.5061345914)" id="kPTh2ZnrIbKY8wL5khJWa"  >
<path style="stroke: rgb(45,87,33); stroke-width: 0; stroke-dasharray: none; stroke-linecap: butt; stroke-dashoffset: 0; stroke-linejoin: miter; stroke-miterlimit: 4; fill: rgb(211,177,194); fill-rule: nonzero; opacity: 1;"  transform=" translate(0, 0)" d="M -5.29974 -3.28708 C -5.29974 -4.39864 -4.29306 -5.29974 -3.05125 -5.29974 L 3.05125 -5.29974 L 3.05125 -5.29974 C 4.2930600000000005 -5.29974 5.29974 -4.39864 5.29974 -3.28708 L 5.29974 3.2870700000000004 L 5.29974 3.2870700000000004 C 5.29974 4.398630000000001 4.29306 5.29973 3.05125 5.29973 L -3.05125 5.29973 L -3.05125 5.29973 C -4.2930600000000005 5.29973 -5.29974 4.398630000000001 -5.29974 3.2870700000000004 z" stroke-linecap="round" />
</g>
</g>
</g>
</svg>