<?xml version="1.0" encoding="UTF-8" standalone="no" ?>
<!DOCTYPE svg PUBLIC "-//W3C//DTD SVG 1.1//EN" "http://www.w3.org/Graphics/SVG/1.1/DTD/svg11.dtd">
<svg xmlns="http://www.w3.org/2000/svg" xmlns:xlink="http://www.w3.org/1999/xlink" version="1.1" width="35" height="35" viewBox="0 0 35 35" xml:space="preserve">
<desc>Created with Fabric.js 5.3.0</desc>
<defs>
</defs>
<g transform="matrix(1 0 0 1 17.5 17.5)" id="zYr2OK_d7tACaXzcwnNhq"  >
<g style=""   >
		<g transform="matrix(2.0913367861 0 0 1 -7.2716856263 10.778896992)" id="BIe6h9yW05SF5oFzviRup"  >
<path style="stroke: rgb(223,210,136); stroke-width: 0; stroke-dasharray: none; stroke-linecap: butt; stroke-dashoffset: 0; stroke-linejoin: miter; stroke-miterlimit: 4; fill: rgb(211,177,194); fill-rule: nonzero; opacity: 1;"  transform=" translate(0, -0.000005)" d="M -3.47705 -2.00186 C -3.47705 -2.81658 -3.1612400000000003 -3.47705 -2.7716700000000003 -3.47705 L 2.7716699999999994 -3.47705 L 2.7716699999999994 -3.47705 C 3.1612399999999994 -3.47705 3.4770499999999993 -2.81659 3.4770499999999993 -2.00186 L 3.4770499999999993 2.00187 L 3.4770499999999993 2.00187 C 3.4770499999999993 2.8165899999999997 3.1612399999999994 3.47706 2.7716699999999994 3.47706 L -2.7716700000000003 3.47706 L -2.7716700000000003 3.47706 C -3.1612400000000003 3.47706 -3.47705 2.8165999999999998 -3.47705 2.00187 z" stroke-linecap="round" />
</g>
		<g transform="matrix(0.7573361484 0 0 0.784826328 6.5979264224 0.7521555486)" id="NKvOmbjzhcgldV0IFd-12"  >
<path style="stroke: rgb(211,177,194); stroke-width: 0; stroke-dasharray: none; stroke-linecap: butt; stroke-dashoffset: 0; stroke-linejoin: miter; stroke-miterlimit: 4; fill: rgb(103,74,105); fill-rule: nonzero; opacity: 1;"  transform=" translate(-13.85567, -13.50805)" d="M 13.85567 0 C 18.22852 0 21.7775 3.45628 21.7775 7.71492 C 21.7775 10.53193 20.22462 12.99786 17.9076 14.344570000000001 C 23.58112 15.15521 27.71135 17.623260000000002 27.71135 20.53949 C 27.71135 24.11458 21.50401 27.0161 13.85567 27.0161 C 6.20733 27.0161 -0.000009999999999621423 24.11458 -0.000009999999999621423 20.53949 C -0.000009999999999621423 17.623260000000002 4.1302200000000004 15.15521 9.80373 14.344570000000001 C 7.48671 12.997860000000001 5.93383 10.531930000000001 5.93383 7.714920000000001 C 5.93383 3.4562800000000014 9.48281 8.881784197001252e-16 13.85566 8.881784197001252e-16 z" stroke-linecap="round" />
</g>
		<g transform="matrix(1 0 0 1 7.9881867244 11.2139167508)" id="uK5yzedSatmbKtTfpsC6z"  >
<path style="stroke: rgb(209,19,11); stroke-width: 0; stroke-dasharray: none; stroke-linecap: butt; stroke-dashoffset: 0; stroke-linejoin: miter; stroke-miterlimit: 4; fill: rgb(103,74,105); fill-rule: nonzero; opacity: 1;"  transform=" translate(-7.116245, -3.912075)" d="M 0 1.65975 C 0 0.74309 0.7431 0 1.65975 0 L 12.572740000000001 0 L 12.572740000000001 0 C 13.489400000000002 0 14.232490000000002 0.7431 14.232490000000002 1.65975 L 14.232490000000002 6.1644 L 14.232490000000002 6.1644 C 14.232490000000002 7.08106 13.489390000000002 7.8241499999999995 12.572740000000001 7.8241499999999995 L 1.6597500000000007 7.8241499999999995 L 1.6597500000000007 7.8241499999999995 C 0.7430900000000007 7.8241499999999995 6.661338147750939e-16 7.081049999999999 6.661338147750939e-16 6.1644 z" stroke-linecap="round" />
</g>
		<g transform="matrix(0.7668030029 0 0 0.8169906326 -5.9354840682 0.7521555486)" id="Sb5AsFVBEKitY85eH7R0g"  >
<path style="stroke: rgb(211,177,194); stroke-width: 0; stroke-dasharray: none; stroke-linecap: butt; stroke-dashoffset: 0; stroke-linejoin: miter; stroke-miterlimit: 4; fill: rgb(211,177,194); fill-rule: nonzero; opacity: 1;"  transform=" translate(-13.85567, -13.50805)" d="M 13.85567 0 C 18.22852 0 21.7775 3.45628 21.7775 7.71492 C 21.7775 10.53193 20.22462 12.99786 17.9076 14.344570000000001 C 23.58112 15.15521 27.71135 17.623260000000002 27.71135 20.53949 C 27.71135 24.11458 21.50401 27.0161 13.85567 27.0161 C 6.20733 27.0161 -0.000009999999999621423 24.11458 -0.000009999999999621423 20.53949 C -0.000009999999999621423 17.623260000000002 4.1302200000000004 15.15521 9.80373 14.344570000000001 C 7.48671 12.997860000000001 5.93383 10.531930000000001 5.93383 7.714920000000001 C 5.93383 3.4562800000000014 9.48281 8.881784197001252e-16 13.85566 8.881784197001252e-16 z" stroke-linecap="round" />
</g>
		<g transform="matrix(0.8321021463 0 0 0.8321021463 0.0000018643 5.288864153)" id="2cGUBAXT_7DnPdhg1c9n6"  >
<path style="stroke: rgb(211,177,194); stroke-width: 0; stroke-dasharray: none; stroke-linecap: butt; stroke-dashoffset: 0; stroke-linejoin: miter; stroke-miterlimit: 4; fill: rgb(229,206,218); fill-rule: nonzero; opacity: 1;"  transform=" translate(0, 0)" d="M 0 -13.50805 C 4.37285 -13.50805 7.92183 -10.051770000000001 7.92183 -5.793130000000001 C 7.92183 -2.9761200000000008 6.36895 -0.5101900000000006 4.0519300000000005 0.8365199999999993 C 9.72545 1.6471599999999993 13.855680000000001 4.115209999999999 13.855680000000001 7.031439999999999 C 13.855680000000001 10.60653 7.648340000000001 13.508049999999999 1.7763568394002505e-15 13.508049999999999 C -7.648339999999998 13.508049999999999 -13.855679999999998 10.60653 -13.855679999999998 7.031439999999999 C -13.855679999999998 4.115209999999999 -9.725449999999999 1.6471599999999986 -4.051939999999998 0.8365199999999993 C -6.368959999999998 -0.5101900000000008 -7.921839999999998 -2.9761200000000008 -7.921839999999998 -5.793130000000001 C -7.921839999999998 -10.051770000000001 -4.3728599999999975 -13.50805 -0.000009999999997845066 -13.50805 z" stroke-linecap="round" />
</g>
		<g transform="matrix(1.0329541989 0 0 0.7229400488 0 12.530145624)" id="yIcCg342PGklX1d0afuSb"  >
<path style="stroke: rgb(155,3,61); stroke-width: 0; stroke-dasharray: none; stroke-linecap: butt; stroke-dashoffset: 0; stroke-linejoin: miter; stroke-miterlimit: 4; fill: rgb(229,206,218); fill-rule: nonzero; opacity: 1;"  transform=" translate(-0.00001, 0)" d="M -11.16152 -1.82452 C -11.16152 -3.25587 -10.349419999999999 -4.41622 -9.34765 -4.41622 L 9.347669999999999 -4.41622 L 9.347669999999999 -4.41622 C 10.34944 -4.41622 11.161539999999999 -3.2558800000000003 11.161539999999999 -1.8245200000000001 L 11.161539999999999 1.8245199999999997 L 11.161539999999999 1.8245199999999997 C 11.161539999999999 3.25587 10.349439999999998 4.416219999999999 9.347669999999999 4.416219999999999 L -9.34765 4.416219999999999 L -9.34765 4.416219999999999 C -10.34942 4.416219999999999 -11.16152 3.2558799999999994 -11.16152 1.8245199999999993 z" stroke-linecap="round" />
</g>
		<g transform="matrix(3.1826666667 0 0 3.1826666667 0 0)" id="pldCblXp3ssK7Y4qWUYfZ"  >
<path style="stroke: rgb(211,177,194); stroke-width: 1; stroke-dasharray: none; stroke-linecap: butt; stroke-dashoffset: 0; stroke-linejoin: miter; stroke-miterlimit: 4; fill: rgb(255,0,0); fill-opacity: 0; fill-rule: nonzero; opacity: 1;"  transform=" translate(0, 0)" d="M -4.87013 -2.80391 C -4.87013 -3.94505 -3.9450499999999997 -4.87013 -2.8039099999999997 -4.87013 L 2.8039100000000006 -4.87013 L 2.8039100000000006 -4.87013 C 3.9450500000000006 -4.87013 4.8701300000000005 -3.9450499999999997 4.8701300000000005 -2.8039099999999997 L 4.8701300000000005 2.8039100000000006 L 4.8701300000000005 2.8039100000000006 C 4.8701300000000005 3.9450500000000006 3.9450500000000006 4.8701300000000005 2.8039100000000006 4.8701300000000005 L -2.8039099999999997 4.8701300000000005 L -2.8039099999999997 4.8701300000000005 C -3.9450499999999997 4.8701300000000005 -4.87013 3.9450500000000006 -4.87013 2.8039100000000006 z" stroke-linecap="round" />
</g>
</g>
</g>
</svg>