<?xml version="1.0" encoding="UTF-8" standalone="no" ?>
<!DOCTYPE svg PUBLIC "-//W3C//DTD SVG 1.1//EN" "http://www.w3.org/Graphics/SVG/1.1/DTD/svg11.dtd">
<svg xmlns="http://www.w3.org/2000/svg" xmlns:xlink="http://www.w3.org/1999/xlink" version="1.1" width="50" height="50" viewBox="0 0 50 50" xml:space="preserve">
<desc>Created with Fabric.js 5.3.0</desc>
<defs>
</defs>
<g transform="matrix(1 0 0 1 25.2937619411 25.4703922616)" id="-XUmb7cX7L4IM4gTKslJz"  >
<g style=""   >
		<g transform="matrix(1.1028806144 0 0 1.1180212998 9.407315059 0.570296337)" id="V0i8-xBTkj_OzBVBSd2M-"  >
<path style="stroke: rgb(211,177,194); stroke-width: 0; stroke-dasharray: none; stroke-linecap: butt; stroke-dashoffset: 0; stroke-linejoin: miter; stroke-miterlimit: 4; fill: rgb(103,74,105); fill-rule: nonzero; opacity: 1;"  transform=" translate(-13.85567, -13.50805)" d="M 13.85567 0 C 18.22852 0 21.7775 3.45628 21.7775 7.71492 C 21.7775 10.53193 20.22462 12.99786 17.9076 14.344570000000001 C 23.58112 15.15521 27.71135 17.623260000000002 27.71135 20.53949 C 27.71135 24.11458 21.50401 27.0161 13.85567 27.0161 C 6.20733 27.0161 -0.000009999999999621423 24.11458 -0.000009999999999621423 20.53949 C -0.000009999999999621423 17.623260000000002 4.1302200000000004 15.15521 9.80373 14.344570000000001 C 7.48671 12.997860000000001 5.93383 10.531930000000001 5.93383 7.714920000000001 C 5.93383 3.4562800000000014 9.48281 8.881784197001252e-16 13.85566 8.881784197001252e-16 z" stroke-linecap="round" />
</g>
		<g transform="matrix(3.1617484479 -0.9066167784 0.5815948208 2.0282621784 14.0842727766 16.2857309355)" id="rTaqpMqZi53rkm-NRg_fZ"  >
<path style="stroke: rgb(99,184,164); stroke-width: 0; stroke-dasharray: none; stroke-linecap: butt; stroke-dashoffset: 0; stroke-linejoin: miter; stroke-miterlimit: 4; fill: rgb(103,74,105); fill-rule: nonzero; opacity: 1;"  transform=" translate(0, 0)" d="M 0 -3.11526 C 1.71963 -3.11526 3.11526 -1.7196200000000001 3.11526 0 C 3.11526 1.71963 1.7196200000000001 3.11526 0 3.11526 C -1.71963 3.11526 -3.11526 1.7196200000000001 -3.11526 0 C -3.11526 -1.71963 -1.7196200000000001 -3.11526 0 -3.11526 z" stroke-linecap="round" />
</g>
		<g transform="matrix(1.128692377 0 0 1.1638408351 -9.2835248217 1.1892289107)" id="H9XtEghWTGLf2u80dzNe2"  >
<path style="stroke: rgb(211,177,194); stroke-width: 0; stroke-dasharray: none; stroke-linecap: butt; stroke-dashoffset: 0; stroke-linejoin: miter; stroke-miterlimit: 4; fill: rgb(211,177,194); fill-rule: nonzero; opacity: 1;"  transform=" translate(-13.85567, -13.50805)" d="M 13.85567 0 C 18.22852 0 21.7775 3.45628 21.7775 7.71492 C 21.7775 10.53193 20.22462 12.99786 17.9076 14.344570000000001 C 23.58112 15.15521 27.71135 17.623260000000002 27.71135 20.53949 C 27.71135 24.11458 21.50401 27.0161 13.85567 27.0161 C 6.20733 27.0161 -0.000009999999999621423 24.11458 -0.000009999999999621423 20.53949 C -0.000009999999999621423 17.623260000000002 4.1302200000000004 15.15521 9.80373 14.344570000000001 C 7.48671 12.997860000000001 5.93383 10.531930000000001 5.93383 7.714920000000001 C 5.93383 3.4562800000000014 9.48281 8.881784197001252e-16 13.85566 8.881784197001252e-16 z" stroke-linecap="round" />
</g>
		<g transform="matrix(4.5125861964 0.5540759147 -0.3039256399 2.4752756999 -10.7410685162 15.6725839557)" id="Y6xjkAH63QULGR9o8RJT3"  >
<path style="stroke: rgb(208,69,88); stroke-width: 0; stroke-dasharray: none; stroke-linecap: butt; stroke-dashoffset: 0; stroke-linejoin: miter; stroke-miterlimit: 4; fill: rgb(211,177,194); fill-rule: nonzero; opacity: 1;"  transform=" translate(0, 0)" d="M 0 -3.11526 C 1.71963 -3.11526 3.11526 -1.7196200000000001 3.11526 0 C 3.11526 1.71963 1.7196200000000001 3.11526 0 3.11526 C -1.71963 3.11526 -3.11526 1.7196200000000001 -3.11526 0 C -3.11526 -1.71963 -1.7196200000000001 -3.11526 0 -3.11526 z" stroke-linecap="round" />
</g>
		<g transform="matrix(1.1853678833 0 0 1.1853678833 -0.281774892 7.9053211166)" id="pmeaJHi8LtzA6iEZw5owf"  >
<path style="stroke: rgb(211,177,194); stroke-width: 0; stroke-dasharray: none; stroke-linecap: butt; stroke-dashoffset: 0; stroke-linejoin: miter; stroke-miterlimit: 4; fill: rgb(229,206,218); fill-rule: nonzero; opacity: 1;"  transform=" translate(0, 0)" d="M 0 -13.50805 C 4.37285 -13.50805 7.92183 -10.051770000000001 7.92183 -5.793130000000001 C 7.92183 -2.9761200000000008 6.36895 -0.5101900000000006 4.0519300000000005 0.8365199999999993 C 9.72545 1.6471599999999993 13.855680000000001 4.115209999999999 13.855680000000001 7.031439999999999 C 13.855680000000001 10.60653 7.648340000000001 13.508049999999999 1.7763568394002505e-15 13.508049999999999 C -7.648339999999998 13.508049999999999 -13.855679999999998 10.60653 -13.855679999999998 7.031439999999999 C -13.855679999999998 4.115209999999999 -9.725449999999999 1.6471599999999986 -4.051939999999998 0.8365199999999993 C -6.368959999999998 -0.5101900000000008 -7.921839999999998 -2.9761200000000008 -7.921839999999998 -5.793130000000001 C -7.921839999999998 -10.051770000000001 -4.3728599999999975 -13.50805 -0.000009999999997845066 -13.50805 z" stroke-linecap="round" />
</g>
		<g transform="matrix(2.5471337527 -0.044460385 0.0129059339 0.7393804582 -0.2867701355 19.1545956712)" id="IU8ZFlvd6-gSTDxQvnMb1"  >
<path style="stroke: rgb(72,44,246); stroke-width: 0; stroke-dasharray: none; stroke-linecap: butt; stroke-dashoffset: 0; stroke-linejoin: miter; stroke-miterlimit: 4; fill: rgb(229,206,218); fill-rule: nonzero; opacity: 1;"  transform=" translate(0, 0)" d="M -6.44709 -2.74824 C -6.44709 -4.79106 -5.96638 -6.44708 -5.3733900000000006 -6.44708 L 5.373389999999999 -6.44708 L 5.373389999999999 -6.44708 C 5.966379999999999 -6.44708 6.447089999999999 -4.79105 6.447089999999999 -2.7482399999999996 L 6.447089999999999 2.7482400000000005 L 6.447089999999999 2.7482400000000005 C 6.447089999999999 4.79106 5.966379999999999 6.447080000000001 5.373389999999999 6.447080000000001 L -5.3733900000000006 6.447080000000001 L -5.3733900000000006 6.447080000000001 C -5.966380000000001 6.447080000000001 -6.447090000000001 4.79105 -6.447090000000001 2.7482400000000005 z" stroke-linecap="round" />
</g>
		<g transform="matrix(4.9249725001 0 0 4.9249725001 -0.281774892 -0.4584052126)" id="nNZq3N3WmgI-PRTNqRrcC"  >
<path style="stroke: rgb(211,177,194); stroke-width: 0.4; stroke-dasharray: none; stroke-linecap: butt; stroke-dashoffset: 0; stroke-linejoin: miter; stroke-miterlimit: 4; fill: rgb(255,0,0); fill-opacity: 0; fill-rule: nonzero; opacity: 1;"  transform=" translate(0, 0)" d="M -4.87013 -2.80391 C -4.87013 -3.94505 -3.9450499999999997 -4.87013 -2.8039099999999997 -4.87013 L 2.8039100000000006 -4.87013 L 2.8039100000000006 -4.87013 C 3.9450500000000006 -4.87013 4.8701300000000005 -3.9450499999999997 4.8701300000000005 -2.8039099999999997 L 4.8701300000000005 2.8039100000000006 L 4.8701300000000005 2.8039100000000006 C 4.8701300000000005 3.9450500000000006 3.9450500000000006 4.8701300000000005 2.8039100000000006 4.8701300000000005 L -2.8039099999999997 4.8701300000000005 L -2.8039099999999997 4.8701300000000005 C -3.9450499999999997 4.8701300000000005 -4.87013 3.9450500000000006 -4.87013 2.8039100000000006 z" stroke-linecap="round" />
</g>
</g>
</g>
</svg>