<?xml version="1.0" encoding="UTF-8" standalone="no" ?>
<!DOCTYPE svg PUBLIC "-//W3C//DTD SVG 1.1//EN" "http://www.w3.org/Graphics/SVG/1.1/DTD/svg11.dtd">
<svg xmlns="http://www.w3.org/2000/svg" xmlns:xlink="http://www.w3.org/1999/xlink" version="1.1" width="1080" height="1080" viewBox="0 0 1080 1080" xml:space="preserve">
<desc>Created with Fabric.js 5.2.4</desc>
<defs>
</defs>
<g transform="matrix(1 0 0 1 540 540)" id="fc1e8ad5-92e5-48cf-af81-727baf7f30fd"  >
<rect style="stroke: none; stroke-width: 1; stroke-dasharray: none; stroke-linecap: butt; stroke-dashoffset: 0; stroke-linejoin: miter; stroke-miterlimit: 4; fill: rgb(255,255,255); fill-rule: nonzero; opacity: 1; visibility: hidden;" vector-effect="non-scaling-stroke"  x="-540" y="-540" rx="0" ry="0" width="1080" height="1080" />
</g>
<g transform="matrix(1 0 0 1 540 540)" id="1e44d4c2-cba4-4ab4-a7b0-2d23a6ebf86a"  >
</g>
<g transform="matrix(-7.54 0 0 -7.54 540 540)"  >
<g style="" vector-effect="non-scaling-stroke"   >
		<g transform="matrix(1.33 0 0 1.33 -0.11 -0.17)"  >
<path style="stroke: none; stroke-width: 1; stroke-dasharray: none; stroke-linecap: butt; stroke-dashoffset: 0; stroke-linejoin: miter; stroke-miterlimit: 4; fill: rgb(211,177,194); fill-rule: nonzero; opacity: 1;" vector-effect="non-scaling-stroke"  transform=" translate(-50, -50)" d="M 53.848 36.066 L 53.848 19.394000000000002 L 59.2738 19.394000000000002 L 50.0004 -0.0009999999999976694 L 40.727 19.394000000000002 L 46.1528 19.394000000000002 L 46.1528 36.066 C 30.2698 37.9722 17.9148 51.523 17.9148 67.914 C 17.9148 85.605 32.309799999999996 100 50.0008 100 C 67.6918 100 82.0868 85.605 82.0868 67.914 C 82.0868 51.523 69.73179999999999 37.973 53.8488 36.066 z M 50.000299999999996 92.30799999999999 C 36.5513 92.30799999999999 25.605299999999996 81.36699999999999 25.605299999999996 67.913 C 25.605299999999996 54.459999999999994 36.546299999999995 43.518 50.000299999999996 43.518 C 63.449299999999994 43.518 74.3913 54.459 74.3913 67.913 C 74.395206 81.362 63.4503 92.30799999999999 50.0003 92.30799999999999 z" stroke-linecap="round" />
</g>
		<g transform="matrix(1.33 0 0 1.33 -0.02 23.86)"  >
<path style="stroke: none; stroke-width: 1; stroke-dasharray: none; stroke-linecap: butt; stroke-dashoffset: 0; stroke-linejoin: miter; stroke-miterlimit: 4; fill: rgb(211,177,194); fill-rule: nonzero; opacity: 1;" vector-effect="non-scaling-stroke"  transform=" translate(-50, -67.91)" d="M 56.625 67.914 C 56.625 71.5702 53.6602 74.5351 50 74.5351 C 46.3398 74.5351 43.375 71.5703 43.375 67.914 C 43.375 64.2538 46.3398 61.289 50 61.289 C 53.6602 61.289 56.625 64.2538 56.625 67.914" stroke-linecap="round" />
</g>
</g>
</g>
<g transform="matrix(0 0 0 0 0 0)"  >
<g style=""   >
</g>
</g>
<g transform="matrix(0 0 0 0 0 0)"  >
<g style=""   >
</g>
</g>
</svg>