<svg width="100" height="100" xmlns="http://www.w3.org/2000/svg" version="1.1">

 <g>
  <title>Layer 1</title>
  <g transform="rotate(-10.2481 49.6574 49.9079)" stroke="null" id="svg_1">
   <path stroke="null" fill="#613659" id="svg_2" d="m31.9342,-1.91673s-24.95779,0.29962 -24.63251,20.82781c0.32547,20.53241 4.86407,38.68704 12.31854,48.80139c7.45435,10.11819 26.57622,36.60156 48.29259,33.92527c0,0 10.69566,-2.08517 18.79681,-6.84673l-26.25094,-18.74234s-7.77986,4.46595 -12.63925,-1.49c-4.86407,-5.9519 -20.09338,-33.62572 -20.09338,-33.62572s-4.21316,-8.92785 5.18513,-12.79479l-0.97699,-30.05491z"/>
   <path stroke="null" fill="#613659" id="svg_3" d="m34.85376,-1.91673s1.94382,-0.59114 5.51053,1.19034c3.5667,1.78561 3.5667,3.27146 3.5667,3.27146l0.32547,20.53552s-0.97192,1.19034 -2.26934,2.38078c-1.29737,1.19034 -5.51053,2.97595 -6.16144,1.78561c-0.64647,-1.19034 -0.97192,-29.16454 -0.97192,-29.16454l0,0.00083z"/>
   <path stroke="null" fill="#613659" id="svg_4" d="m62.64323,73.85402l7.21809,-3.46177s1.61843,-0.29557 4.21316,1.19034c2.59473,1.49 16.20596,11.31257 16.20596,11.31257s2.26934,1.78561 1.61843,3.86673c-0.64647,2.08112 -2.26934,6.54707 -2.26934,6.54707l-26.9863,-19.45495z"/>
  </g>
 </g>
</svg>